<?xml version="1.0" encoding="UTF-8" standalone="no"?>
<svg width="1193px" height="299px" viewBox="0 0 1193 299" version="1.1" xmlns="http://www.w3.org/2000/svg" xmlns:xlink="http://www.w3.org/1999/xlink" xmlns:sketch="http://www.bohemiancoding.com/sketch/ns">
    <!-- Generator: Sketch 3.1.1 (8761) - http://www.bohemiancoding.com/sketch -->
    <title>logo</title>
    <desc>Created with Sketch.</desc>
    <defs></defs>
    <g id="Page-1" stroke="none" stroke-width="1" fill="none" fill-rule="evenodd" sketch:type="MSPage">
        <g id="Group" sketch:type="MSLayerGroup">
            <path d="M136.3885,130.101186 C139.60725,111.333686 150.926,90.9249362 159.9435,74.6574362 L160.921,72.8961862 C161.1085,72.5574362 161.5385,72.4336862 161.881,72.6174362 L171.56975,77.7911862 C171.9135,77.9724362 172.041,78.3961862 171.85475,78.7336862 L170.87225,80.5049362 C159.70975,100.633686 142.89225,130.958686 149.391,149.163686 C149.406,149.198686 149.41975,149.234936 149.43225,149.271186 C149.5735,149.634936 149.3785,150.039936 149.00225,150.166186 L138.59475,153.753686 C138.22975,153.881186 137.82475,153.698686 137.69475,153.338686 L137.69225,153.332436 C136.93975,151.474936 133.08225,143.033686 123.29475,137.174936 L121.99975,136.481186 C111.76725,131.649936 102.731,132.986186 100.53975,133.418686 C100.5035,133.424936 100.4685,133.436186 100.43475,133.443686 C100.056,133.532436 99.6785,133.301186 99.586,132.928686 L96.99225,122.401186 C96.8985,122.018686 97.136,121.643686 97.526,121.557436 C97.55975,121.549936 97.5935,121.544936 97.631,121.533686 C115.23975,117.333686 129.881,90.3674362 140.5985,70.6249362 C141.78975,68.4286862 142.92225,66.3486862 144.041,64.3174362 C144.2285,63.9786862 144.6585,63.8549362 145.0035,64.0386862 L154.691,69.2111862 C155.036,69.3961862 155.1635,69.8124362 154.97725,70.1536862 C153.8785,72.1436862 152.7585,74.2049362 151.5785,76.3761862 C143.1335,91.9299362 133.3085,110.027436 120.71225,121.806186 C120.32225,122.169936 120.46475,122.812436 120.97725,122.972436 C122.4735,123.437436 124.00225,123.991186 125.551,124.644936 L125.62225,124.512436 C126.67225,125.013686 127.6785,125.537436 128.6435,126.079936 C129.63475,126.578686 130.6285,127.124936 131.626,127.717436 L131.551,127.847436 C132.871,128.712436 134.10225,129.616186 135.2485,130.533686 C135.67225,130.869936 136.2985,130.629936 136.3885,130.101186" id="path22" fill="#000000" sketch:type="MSShapeGroup" transform="translate(134.456114, 108.873968) scale(1, -1) translate(-134.456114, -108.873968) "></path>
            <path d="M241.176625,102.617683 L238.179125,107.933933 L233.876625,115.997683 L233.876625,116.002683 L233.802875,116.135183 L233.799125,116.135183 L226.954125,128.662683 L222.059125,138.037683 C221.397875,139.363933 220.657875,140.928933 220.051625,142.260183 C220.024125,142.320183 220.002875,142.361433 219.976625,142.397683 L219.975375,142.402683 C216.941625,149.551433 215.236625,153.387683 214.610375,155.437683 C214.390375,156.160183 213.974125,155.393933 213.850375,155.126433 C211.471625,150.088933 207.527875,145.202683 202.596625,140.578933 L213.699125,116.922683 L222.445375,98.3514334 L220.841625,88.2214334 L220.842875,88.2214334 L220.784125,87.8526834 L217.652875,68.0651834 L217.549125,68.2639334 C217.471625,68.0376834 217.319125,67.8476834 217.109125,67.7289334 L194.894125,55.2789334 C194.639125,55.1376834 194.335375,55.1164334 194.062875,55.2239334 L172.027875,63.9201834 C173.847875,64.2189334 175.679125,64.8214334 177.436625,65.7564334 C181.642875,67.9939334 184.527875,71.6426834 185.666625,75.5751834 C189.756625,73.8989334 194.837875,74.0789334 199.422875,76.5176834 C203.884125,78.8901834 206.847875,82.8501834 207.830375,87.0439334 L196.789125,108.385183 L196.784125,108.382683 L194.837875,112.155183 L190.915375,119.738933 C190.919125,119.738933 190.922875,119.742683 190.927875,119.745183 L186.510375,128.321433 C171.051625,118.450183 152.744125,110.758933 139.721625,106.863933 C135.296625,111.926433 124.942875,123.572683 124.942875,123.572683 C164.471625,132.368933 172.796625,145.822683 172.796625,145.822683 C100.545375,121.017683 65.522875,167.318933 60.466625,176.186433 C41.149125,210.061433 53.455375,253.417683 87.511625,272.620183 C104.002875,281.885183 122.887875,283.293933 141.326625,279.068933 C181.087875,269.963933 201.942875,228.378933 205.384125,214.288933 C205.542875,213.637683 206.491625,213.747683 206.502875,214.420183 C207.282875,262.972683 174.241625,288.893933 146.126625,296.176433 C123.219125,302.115183 99.432875,299.707683 78.697875,288.052683 C36.204125,264.093933 21.076625,210.008933 44.974125,167.481433 C55.557875,148.647683 72.562875,134.400183 92.931625,127.276433 C107.107875,118.873933 120.912875,104.673933 131.885375,87.1876834 L136.581625,79.4826834 L143.160375,68.6689334 L143.202875,68.6914334 L149.444125,57.9076834 L152.592875,52.3189334 C152.700375,52.1289334 152.870375,51.9801834 153.074125,51.8976834 L223.585375,23.4401834 C224.389125,23.1151834 224.395375,21.9826834 223.596625,21.6439334 C219.679125,19.9876834 211.327875,17.3389334 193.250375,16.1289334 C193.120375,16.1214334 193.000375,16.0876834 192.895375,16.0389334 C191.412875,15.9914334 189.931625,15.9639334 188.450375,15.9639334 C109.091625,15.9639334 50.041625,44.8701834 40.017875,145.726433 C40.005375,145.847683 39.959125,145.963933 39.881625,146.060183 C25.324125,164.160183 18.182875,185.192683 16.569125,204.548933 C16.557875,204.646433 16.547875,204.725183 16.540375,204.832683 C16.079125,210.030183 15.772875,215.092683 14.030375,211.978933 C5.289125,192.961433 0.392875,171.816433 0.392875,149.512683 C0.392875,66.7239334 67.506625,-0.386066571 150.292875,-0.386066571 C178.211625,-0.386066571 204.395375,5.53018343 227.256625,20.6551834 C227.260375,20.6576834 227.260375,20.6576834 227.262875,20.6626834 C227.945375,21.1364334 228.751625,21.7701834 228.979125,22.8926834 L241.291625,101.992683 C241.322875,102.207683 241.285375,102.427683 241.176625,102.617683" id="path26" fill="#000000" sketch:type="MSShapeGroup" transform="translate(120.847562, 149.460092) scale(1, -1) translate(-120.847562, -149.460092) "></path>
            <path d="M257.847875,26.49425 L257.847875,127.38425 L325.679125,127.38425 L325.679125,106.86425 L281.361625,106.86425 L281.361625,87.76925 L323.255375,87.76925 L323.255375,68.24675 L281.361625,68.24675 L281.361625,47.29925 L328.242875,47.29925 L328.242875,26.49425 L257.847875,26.49425 L257.847875,26.49425 Z" id="path30" fill="#231F20" sketch:type="MSShapeGroup" transform="translate(293.045375, 76.939250) scale(1, -1) translate(-293.045375, -76.939250) "></path>
            <path d="M390.087875,57.27425 C390.087875,59.55425 389.682875,61.78425 388.876625,63.97175 C388.069125,66.1555 386.929125,68.10425 385.456625,69.81425 C383.982875,71.52425 382.200375,72.9005 380.112875,73.94675 C378.022875,74.99175 375.645375,75.51425 372.987875,75.51425 C370.230375,75.51425 367.809125,74.99175 365.720375,73.94675 C363.629125,72.9005 361.872875,71.54675 360.447875,69.8855 C359.021625,68.223 357.954125,66.29925 357.241625,64.11425 C356.529125,61.928 356.172875,59.69675 356.172875,57.41675 C356.172875,55.13675 356.529125,52.878 357.241625,50.648 C357.954125,48.41425 359.021625,46.44425 360.447875,44.73425 C361.872875,43.02425 363.629125,41.6455 365.720375,40.60175 C367.809125,39.5555 370.230375,39.03425 372.987875,39.03425 C375.645375,39.03425 378.022875,39.5555 380.112875,40.60175 C382.200375,41.6455 383.982875,43.02425 385.456625,44.73425 C386.929125,46.44425 388.069125,48.3905 388.876625,50.57675 C389.682875,52.76175 390.087875,54.99425 390.087875,57.27425 L390.087875,57.27425 Z M390.942875,21.64925 L390.942875,30.91175 L390.657875,30.91175 C388.377875,27.3005 385.121625,24.52175 380.895375,22.5755 C376.669125,20.6305 372.179125,19.65425 367.430375,19.65425 C362.109125,19.65425 357.359125,20.7005 353.180375,22.78925 C348.999125,24.878 345.460375,27.65675 342.562875,31.1255 C339.665375,34.59175 337.456625,38.60675 335.937875,43.16675 C334.416625,47.72675 333.656625,52.4755 333.656625,57.41675 C333.656625,62.35425 334.441625,67.083 336.009125,71.5955 C337.576625,76.1055 339.806625,80.07425 342.706625,83.49425 C345.602875,86.91425 349.119125,89.62175 353.251625,91.61675 C357.384125,93.61175 362.015375,94.60925 367.145375,94.60925 C372.369125,94.60925 376.785375,93.61175 380.397875,91.61675 C384.007875,89.62175 386.810375,87.4355 388.805375,85.06175 L389.090375,85.06175 L389.090375,129.37925 L412.460375,129.37925 L412.460375,21.64925 L390.942875,21.64925 L390.942875,21.64925 Z" id="path34" fill="#231F20" sketch:type="MSShapeGroup" transform="translate(373.058500, 74.516750) scale(1, -1) translate(-373.058500, -74.516750) "></path>
            <path d="M469.17475,58.41425 L469.17475,68.24675 L468.8885,68.24675 C468.03475,66.6305 466.916,65.11175 465.541,63.68675 C464.16225,62.26175 462.54725,61.02675 460.696,59.98175 C458.84225,58.9355 456.79975,58.08175 454.56725,57.41675 C452.33475,56.753 449.98225,56.41925 447.51475,56.41925 C442.76225,56.41925 438.74975,57.27425 435.47225,58.98425 C432.196,60.69425 429.53475,62.903 427.49225,65.6105 C425.44975,68.318 423.97725,71.40425 423.07475,74.873 C422.171,78.33925 421.721,81.878 421.721,85.48925 L421.721,129.37925 L445.23475,129.37925 L445.23475,90.90425 C445.23475,88.90925 445.37725,87.008 445.661,85.20425 C445.94725,83.398 446.491,81.78425 447.301,80.35925 C448.106,78.93425 449.17475,77.8155 450.506,77.0105 C451.836,76.20175 453.59225,75.79925 455.7785,75.79925 C459.8635,75.79925 462.97475,77.318 465.1135,80.35925 C467.251,83.398 468.3185,86.96175 468.3185,91.04675 L468.3185,129.37925 L491.68975,129.37925 L491.68975,58.41425 L469.17475,58.41425 L469.17475,58.41425 Z" id="path38" fill="#231F20" sketch:type="MSShapeGroup" transform="translate(456.705375, 92.899250) scale(1, -1) translate(-456.705375, -92.899250) "></path>
            <path d="M551.3965,104.441875 C550.0665,106.151875 548.2615,107.528125 545.9815,108.574375 C543.70275,109.619375 541.37275,110.141875 538.999,110.141875 C536.52775,110.141875 534.2965,109.643125 532.30275,108.645625 C530.3065,107.648125 528.59775,106.316875 527.1715,104.655625 C525.7465,102.993125 524.629,101.069375 523.82275,98.884375 C523.01525,96.698125 522.61275,94.370625 522.61275,91.901875 C522.61275,89.430625 522.99025,87.104375 523.75275,84.919375 C524.51025,82.733125 525.6265,80.809375 527.10025,79.148125 C528.5715,77.485625 530.329,76.178125 532.37275,75.229375 C534.41525,74.278125 536.719,73.804375 539.28525,73.804375 C541.65775,73.804375 544.009,74.254375 546.33775,75.158125 C548.664,76.060625 550.5415,77.366875 551.9665,79.076875 L564.934,63.259375 C561.989,60.409375 558.18775,58.175625 553.534,56.561875 C548.87775,54.946875 543.93775,54.139375 538.714,54.139375 C533.10775,54.139375 527.8765,54.994375 523.01775,56.704375 C518.159,58.414375 513.9365,60.908125 510.354,64.185625 C506.77025,67.463125 503.9515,71.429375 501.89525,76.084375 C499.8415,80.738125 498.81525,86.010625 498.81525,91.901875 C498.81525,97.695625 499.8415,102.920625 501.89525,107.576875 C503.9515,112.229375 506.77025,116.198125 510.354,119.475625 C513.9365,122.753125 518.159,125.269375 523.01775,127.028125 C527.8765,128.785625 533.0615,129.664375 538.5715,129.664375 C541.1365,129.664375 543.6765,129.425625 546.19525,128.951875 C548.71275,128.475625 551.134,127.834375 553.46275,127.028125 C555.79025,126.220625 557.92775,125.221875 559.87525,124.035625 C561.8215,122.846875 563.509,121.541875 564.934,120.116875 L551.3965,104.441875 L551.3965,104.441875 Z" id="path42" fill="#231F20" sketch:type="MSShapeGroup" transform="translate(531.874625, 91.901875) scale(1, -1) translate(-531.874625, -91.901875) "></path>
            <path d="M610.105,86.772625 L607.1125,86.772625 C604.54875,86.772625 601.9575,86.651375 599.3475,86.416375 C596.73375,86.177625 594.405,85.725125 592.365,85.062625 C590.32,84.397625 588.635,83.422625 587.30625,82.141375 C585.97375,80.858875 585.31,79.171375 585.31,77.082625 C585.31,75.751375 585.6175,74.611375 586.23625,73.662625 C586.8525,72.711375 587.6375,71.952625 588.5875,71.381375 C589.53625,70.811375 590.63,70.406375 591.865,70.171375 C593.1,69.932625 594.28875,69.815125 595.42875,69.815125 C600.1775,69.815125 603.81125,71.120125 606.32875,73.732625 C608.845,76.345125 610.105,79.882625 610.105,84.350125 L610.105,86.772625 L610.105,86.772625 Z M567.21375,117.123875 C571.3925,121.115125 576.2625,124.107625 581.81875,126.102625 C587.37625,128.097625 593.05125,129.093875 598.8475,129.093875 C604.8325,129.093875 609.89125,128.358875 614.025,126.886375 C618.15625,125.411375 621.505,123.132625 624.07125,120.046375 C626.63625,116.957625 628.51125,113.063875 629.7,108.361375 C630.88625,103.658875 631.48125,98.076375 631.48125,91.617625 L631.48125,55.850125 L610.105,55.850125 L610.105,63.402625 L609.6775,63.402625 C607.8725,60.456375 605.14,58.176375 601.485,56.562625 C597.82625,54.947625 593.86125,54.140125 589.58625,54.140125 C586.73625,54.140125 583.79,54.520125 580.75125,55.280125 C577.70875,56.038875 574.93,57.273875 572.415,58.985125 C569.89625,60.695125 567.83,62.975125 566.21625,65.825125 C564.6,68.673875 563.7925,72.188875 563.7925,76.370125 C563.7925,81.498875 565.19375,85.632625 567.99625,88.767625 C570.79875,91.902625 574.40875,94.325125 578.8275,96.035125 C583.245,97.743875 588.16,98.883875 593.575,99.455125 C598.99,100.025125 604.2625,100.310125 609.39375,100.310125 L609.39375,101.450125 C609.39375,104.963875 608.15625,107.552625 605.68875,109.216375 C603.21625,110.876375 600.1775,111.710125 596.56875,111.710125 C593.2425,111.710125 590.035,110.997625 586.95,109.571375 C583.86125,108.147625 581.225,106.436375 579.04,104.442625 L567.21375,117.123875 L567.21375,117.123875 Z" id="path46" fill="#231F20" sketch:type="MSShapeGroup" transform="translate(597.636875, 91.617000) scale(1, -1) translate(-597.636875, -91.617000) "></path>
            <path d="M666.962875,93.0415 L666.962875,65.8615 C666.962875,62.524 667.604125,60.0215 668.886625,58.3515 C670.169125,56.6815 672.471625,55.849 675.797875,55.849 C676.937875,55.849 678.149125,55.9415 679.432875,56.134 C680.714125,56.32275 681.782875,56.609 682.637875,56.989 L682.924125,39.889 C681.306625,39.31775 679.265375,38.82025 676.795375,38.3915 C674.324125,37.964 671.854125,37.7515 669.385375,37.7515 C664.634125,37.7515 660.644125,38.34775 657.415375,39.5365 C654.184125,40.72525 651.595375,42.4415 649.649125,44.68025 C647.701625,46.919 646.300375,49.58525 645.445375,52.68025 C644.591625,55.77525 644.162875,59.22775 644.162875,63.03775 L644.162875,93.0415 L632.762875,93.0415 L632.762875,110.4265 L644.020375,110.4265 L644.020375,129.094 L666.962875,129.094 L666.962875,110.4265 L683.635375,110.4265 L683.635375,93.0415 L666.962875,93.0415 L666.962875,93.0415 Z" id="path50" fill="#231F20" sketch:type="MSShapeGroup" transform="translate(658.199125, 83.422750) scale(1, -1) translate(-658.199125, -83.422750) "></path>
            <path d="M689.04875,91.90125 L712.4175,91.90125 L712.4175,20.93625 L689.04875,20.93625 L689.04875,91.90125 L689.04875,91.90125 Z M714.12875,114.55875 C714.12875,112.7525 713.7725,111.0675 713.06,109.49875 C712.3475,107.93125 711.39625,106.5775 710.21,105.4375 C709.02125,104.29875 707.595,103.39375 705.935,102.73 C704.27125,102.065 702.53625,101.7325 700.73375,101.7325 C696.9325,101.7325 693.75125,102.99125 691.18625,105.51 C688.62,108.025 687.33875,111.0425 687.33875,114.55875 C687.33875,116.2675 687.67125,117.9075 688.33625,119.475 C688.99875,121.0425 689.95,122.39625 691.18625,123.53625 C692.42,124.67625 693.84375,125.6025 695.46125,126.31375 C697.075,127.0275 698.83125,127.38375 700.73375,127.38375 C702.53625,127.38375 704.27125,127.04875 705.935,126.38625 C707.595,125.72 709.02125,124.81875 710.21,123.67875 C711.39625,122.53875 712.3475,121.185 713.06,119.6175 C713.7725,118.05 714.12875,116.36125 714.12875,114.55875 L714.12875,114.55875 Z" id="path52" fill="#231F20" sketch:type="MSShapeGroup" transform="translate(700.733750, 74.160000) scale(1, -1) translate(-700.733750, -74.160000) "></path>
            <path d="M777.82475,92.18775 C777.82475,94.46775 777.44475,96.69775 776.686,98.884 C775.9235,101.069 774.83225,102.994 773.4085,104.6565 C771.98225,106.31775 770.2235,107.6715 768.13475,108.71775 C766.04475,109.76275 763.62225,110.28525 760.8685,110.28525 C758.111,110.28525 755.6885,109.76275 753.59975,108.71775 C751.50975,107.6715 749.776,106.31775 748.3985,104.6565 C747.01975,102.994 745.976,101.069 745.2635,98.884 C744.55225,96.69775 744.196,94.46775 744.196,92.18775 C744.196,89.90775 744.55225,87.674 745.2635,85.49025 C745.976,83.304 747.04475,81.33275 748.471,79.5765 C749.89475,77.81775 751.65225,76.4165 753.74225,75.37275 C755.831,74.3265 758.2535,73.80525 761.011,73.80525 C763.76475,73.80525 766.186,74.3265 768.27725,75.37275 C770.366,76.4165 772.12475,77.81775 773.54975,79.5765 C774.976,81.33275 776.0435,83.304 776.75725,85.49025 C777.46975,87.674 777.82475,89.90775 777.82475,92.18775 M800.341,92.18775 C800.341,86.3915 799.2935,81.144 797.206,76.44025 C795.11475,71.739 792.26475,67.749 788.65475,64.4715 C785.0435,61.194 780.86475,58.6515 776.116,56.84775 C771.3635,55.044 766.2835,54.14025 760.8685,54.14025 C755.546,54.14025 750.48725,55.044 745.691,56.84775 C740.8935,58.6515 736.7135,61.194 733.15225,64.4715 C729.5885,67.749 726.761,71.739 724.6735,76.44025 C722.58225,81.144 721.5385,86.3915 721.5385,92.18775 C721.5385,97.9815 722.58225,103.2065 724.6735,107.86275 C726.761,112.5165 729.5885,116.459 733.15225,119.69025 C736.7135,122.919 740.8935,125.39025 745.691,127.10025 C750.48725,128.81025 755.546,129.664 760.8685,129.664 C766.2835,129.664 771.3635,128.81025 776.116,127.10025 C780.86475,125.39025 785.0435,122.919 788.65475,119.69025 C792.26475,116.459 795.11475,112.5165 797.206,107.86275 C799.2935,103.2065 800.341,97.9815 800.341,92.18775" id="path56" fill="#231F20" sketch:type="MSShapeGroup" transform="translate(760.939750, 91.902125) scale(1, -1) translate(-760.939750, -91.902125) "></path>
            <path d="M855.91425,54.42425 L855.91425,93.18425 C855.91425,95.17925 855.74675,97.078 855.4155,98.88425 C855.08175,100.688 854.5355,102.27925 853.77675,103.658 C853.0155,105.03425 851.9455,106.12675 850.5705,106.9355 C849.19175,107.74175 847.45675,108.14675 845.368,108.14675 C843.27925,108.14675 841.4505,107.74175 839.883,106.9355 C838.3155,106.12675 837.008,105.01175 835.96425,103.58675 C834.91675,102.16175 834.133,100.523 833.613,98.6705 C833.08925,96.818 832.82925,94.89425 832.82925,92.89925 L832.82925,54.42425 L809.31675,54.42425 L809.31675,125.38925 L831.97425,125.38925 L831.97425,115.55675 L832.25925,115.55675 C833.11425,117.0755 834.22925,118.5705 835.608,120.0455 C836.983,121.518 838.59925,122.7755 840.453,123.82175 C842.30425,124.86675 844.323,125.7205 846.50925,126.38675 C848.69425,127.0505 851.0205,127.38425 853.49175,127.38425 C858.2405,127.38425 862.278,126.52925 865.60425,124.81925 C868.928,123.10925 871.61175,120.9005 873.65425,118.193 C875.69675,115.4855 877.16925,112.37175 878.073,108.85925 C878.97425,105.343 879.42675,101.828 879.42675,98.31425 L879.42675,54.42425 L855.91425,54.42425 L855.91425,54.42425 Z" id="path60" fill="#231F20" sketch:type="MSShapeGroup" transform="translate(844.371750, 90.904250) scale(1, -1) translate(-844.371750, -90.904250) "></path>
            <path d="M302.42675,158.846625 L302.42675,259.736625 L370.25675,259.736625 L370.25675,239.216625 L325.93925,239.216625 L325.93925,220.121625 L367.83425,220.121625 L367.83425,200.599125 L325.93925,200.599125 L325.93925,179.651625 L372.82175,179.651625 L372.82175,158.846625 L302.42675,158.846625 L302.42675,158.846625 Z" id="path64" fill="#231F20" sketch:type="MSShapeGroup" transform="translate(337.624250, 209.291625) scale(1, -1) translate(-337.624250, -209.291625) "></path>
            <path d="M427.96875,186.776625 L427.96875,225.536625 C427.96875,227.531625 427.80125,229.430375 427.47,231.236625 C427.135,233.040375 426.58875,234.631625 425.83,236.010375 C425.07,237.386625 424,238.479125 422.625,239.287875 C421.24625,240.094125 419.51125,240.499125 417.4225,240.499125 C415.3325,240.499125 413.505,240.094125 411.9375,239.287875 C410.37,238.479125 409.0625,237.364125 408.0175,235.939125 C406.97125,234.514125 406.1875,232.875375 405.66625,231.022875 C405.14375,229.170375 404.8825,227.246625 404.8825,225.251625 L404.8825,186.776625 L381.37125,186.776625 L381.37125,257.741625 L404.02875,257.741625 L404.02875,247.909125 L404.3125,247.909125 C405.16875,249.427875 406.28375,250.922875 407.6625,252.397875 C409.0375,253.870375 410.65375,255.127875 412.5075,256.174125 C414.35875,257.219125 416.3775,258.072875 418.56375,258.739125 C420.7475,259.402875 423.07375,259.736625 425.54625,259.736625 C430.295,259.736625 434.3325,258.881625 437.65875,257.171625 C440.9825,255.461625 443.66625,253.252875 445.70875,250.545375 C447.75125,247.837875 449.2225,244.724125 450.1275,241.211625 C451.02875,237.695375 451.48125,234.180375 451.48125,230.666625 L451.48125,186.776625 L427.96875,186.776625 L427.96875,186.776625 Z" id="path68" fill="#231F20" sketch:type="MSShapeGroup" transform="translate(416.426250, 223.256625) scale(1, -1) translate(-416.426250, -223.256625) "></path>
            <path d="M488.244625,225.39375 L488.244625,198.21375 C488.244625,194.87625 488.887125,192.37375 490.168375,190.70375 C491.452125,189.03375 493.754625,188.20125 497.079625,188.20125 C498.219625,188.20125 499.430875,188.29375 500.715875,188.48625 C501.997125,188.675 503.065875,188.96125 503.920875,189.34125 L504.207125,172.24125 C502.588375,171.67 500.547125,171.1725 498.078375,170.74375 C495.605875,170.31625 493.137125,170.10375 490.668375,170.10375 C485.915875,170.10375 481.925875,170.7 478.698375,171.88875 C475.465875,173.0775 472.878375,174.79375 470.932125,177.0325 C468.984625,179.27125 467.583375,181.9375 466.728375,185.0325 C465.873375,188.1275 465.445875,191.58 465.445875,195.39 L465.445875,225.39375 L454.045875,225.39375 L454.045875,242.77875 L465.302125,242.77875 L465.302125,261.44625 L488.244625,261.44625 L488.244625,242.77875 L504.917125,242.77875 L504.917125,225.39375 L488.244625,225.39375 L488.244625,225.39375 Z" id="path72" fill="#231F20" sketch:type="MSShapeGroup" transform="translate(479.481500, 215.775000) scale(1, -1) translate(-479.481500, -215.775000) "></path>
            <path d="M555.647,238.50425 C554.60075,238.7905 553.58075,238.97925 552.58325,239.07425 C551.58575,239.168 550.61075,239.21675 549.662,239.21675 C546.527,239.21675 543.89075,238.64675 541.75325,237.51175 C539.61575,236.37425 537.90575,234.99925 536.62325,233.38925 C535.34075,231.778 534.4145,230.0255 533.8445,228.1305 C533.2745,226.23675 532.9895,224.57925 532.9895,223.15925 L532.9895,186.77675 L509.6195,186.77675 L509.6195,257.65675 L532.13325,257.65675 L532.13325,247.39675 L532.4195,247.39675 C534.222,251.0305 536.78825,253.998 540.1145,256.29175 C543.43825,258.588 547.287,259.73675 551.657,259.73675 C552.6045,259.73675 553.532,259.688 554.43575,259.59425 C555.337,259.49925 556.0745,259.35675 556.6445,259.16675 L555.647,238.50425 L555.647,238.50425 Z" id="path76" fill="#231F20" sketch:type="MSShapeGroup" transform="translate(533.132000, 223.256750) scale(1, -1) translate(-533.132000, -223.256750) "></path>
            <path d="M607.659875,232.376875 C607.659875,236.081875 606.494875,239.264375 604.168625,241.925625 C601.839875,244.583125 598.348625,245.914375 593.693625,245.914375 C591.414875,245.914375 589.323625,245.558125 587.424875,244.846875 C585.522375,244.133125 583.862375,243.158125 582.436125,241.925625 C581.012375,240.688125 579.872375,239.239375 579.017375,237.578125 C578.161125,235.915625 577.686125,234.180625 577.591125,232.376875 L607.659875,232.376875 L607.659875,232.376875 Z M629.177375,223.399375 L629.177375,220.549375 C629.177375,219.598125 629.128625,218.698125 629.034875,217.841875 L577.591125,217.841875 C577.781125,215.846875 578.374875,214.041875 579.372375,212.426875 C580.371125,210.810625 581.652375,209.410625 583.219875,208.223125 C584.787375,207.034375 586.544875,206.108125 588.493625,205.444375 C590.439875,204.779375 592.458625,204.446875 594.549875,204.446875 C598.254875,204.446875 601.388625,205.135625 603.953625,206.514375 C606.519875,207.889375 608.608625,209.670625 610.224875,211.856875 L626.469875,201.596875 C623.143625,196.751875 618.749875,193.023125 613.288625,190.410625 C607.824875,187.799375 601.483625,186.491875 594.263625,186.491875 C588.942375,186.491875 583.908625,187.324375 579.158625,188.985625 C574.407375,190.646875 570.252375,193.069375 566.691125,196.254375 C563.128625,199.434375 560.324875,203.353125 558.283625,208.009375 C556.238625,212.663125 555.219875,217.984375 555.219875,223.969375 C555.219875,229.763125 556.217375,235.013125 558.211125,239.715625 C560.206125,244.418125 562.913625,248.408125 566.333625,251.685625 C569.754875,254.963125 573.791125,257.504375 578.447375,259.309375 C583.101125,261.113125 588.137375,262.016875 593.552375,262.016875 C598.776125,262.016875 603.573625,261.138125 607.944875,259.381875 C612.313625,257.621875 616.067375,255.081875 619.201125,251.756875 C622.336125,248.430625 624.781125,244.393125 626.539875,239.644375 C628.297375,234.893125 629.177375,229.478125 629.177375,223.399375 L629.177375,223.399375 Z" id="path80" fill="#231F20" sketch:type="MSShapeGroup" transform="translate(592.198625, 224.254375) scale(1, -1) translate(-592.198625, -224.254375) "></path>
            <path d="M692.3035,256.745 C692.3035,259.025 691.94725,261.255 691.23475,263.44125 C690.52225,265.62625 689.47475,267.55125 688.09975,269.21375 C686.721,270.875 684.986,272.22875 682.8985,273.275 C680.8085,274.32 678.38475,274.8425 675.631,274.8425 C672.96975,274.8425 670.59475,274.32 668.506,273.275 C666.41475,272.22875 664.6335,270.8525 663.16225,269.1425 C661.6885,267.4325 660.5485,265.48375 659.74225,263.3 C658.93475,261.1125 658.52975,258.8825 658.52975,256.6025 C658.52975,254.3225 658.93475,252.08875 659.74225,249.90375 C660.5485,247.7175 661.6885,245.7725 663.16225,244.0625 C664.6335,242.35125 666.41475,240.97375 668.506,239.93 C670.59475,238.88375 672.96975,238.3625 675.631,238.3625 C678.38475,238.3625 680.8085,238.88375 682.8985,239.93 C684.986,240.97375 686.721,242.35125 688.09975,244.0625 C689.47475,245.7725 690.52225,247.7425 691.23475,249.97625 C691.94725,252.20625 692.3035,254.465 692.3035,256.745 M714.961,256.745 C714.961,251.80375 714.19975,247.055 712.681,242.495 C711.15975,237.935 708.951,233.92 706.05475,230.45375 C703.156,226.98375 699.6185,224.20625 695.4385,222.1175 C691.25725,220.02875 686.50725,218.9825 681.18725,218.9825 C676.81725,218.9825 672.686,219.86125 668.78975,221.6175 C664.8935,223.375 661.856,225.77375 659.671,228.81375 L659.386,228.81375 L659.386,186.77625 L636.016,186.77625 L636.016,291.9425 L658.246,291.9425 L658.246,283.25 L658.6735,283.25 C660.85725,286.09875 663.87475,288.59375 667.72225,290.73 C671.56975,292.8675 676.10475,293.9375 681.331,293.9375 C686.461,293.9375 691.11475,292.94 695.296,290.94375 C699.47475,288.95 703.01225,286.2425 705.91225,282.82125 C708.8085,279.4025 711.04225,275.43375 712.60975,270.92375 C714.17725,266.41 714.961,261.6825 714.961,256.745" id="path84" fill="#231F20" sketch:type="MSShapeGroup" transform="translate(675.488500, 240.356875) scale(1, -1) translate(-675.488500, -240.356875) "></path>
            <path d="M767.97,238.50425 C766.92375,238.7905 765.90375,238.97925 764.90625,239.07425 C763.90875,239.168 762.93375,239.21675 761.985,239.21675 C758.85,239.21675 756.21375,238.64675 754.07625,237.51175 C751.93875,236.37425 750.22875,234.99925 748.94625,233.38925 C747.66375,231.778 746.7375,230.0255 746.1675,228.1305 C745.5975,226.23675 745.3125,224.57925 745.3125,223.15925 L745.3125,186.77675 L721.9425,186.77675 L721.9425,257.65675 L744.45625,257.65675 L744.45625,247.39675 L744.7425,247.39675 C746.545,251.0305 749.11125,253.998 752.4375,256.29175 C755.76125,258.588 759.61,259.73675 763.98,259.73675 C764.9275,259.73675 765.855,259.688 766.75875,259.59425 C767.66,259.49925 768.3975,259.35675 768.9675,259.16675 L767.97,238.50425 L767.97,238.50425 Z" id="path88" fill="#231F20" sketch:type="MSShapeGroup" transform="translate(745.455000, 223.256750) scale(1, -1) translate(-745.455000, -223.256750) "></path>
            <path d="M819.555625,232.376875 C819.555625,236.081875 818.390625,239.264375 816.064375,241.925625 C813.735625,244.583125 810.244375,245.914375 805.589375,245.914375 C803.310625,245.914375 801.219375,245.558125 799.320625,244.846875 C797.418125,244.133125 795.758125,243.158125 794.331875,241.925625 C792.908125,240.688125 791.768125,239.239375 790.913125,237.578125 C790.056875,235.915625 789.581875,234.180625 789.486875,232.376875 L819.555625,232.376875 L819.555625,232.376875 Z M841.073125,223.399375 L841.073125,220.549375 C841.073125,219.598125 841.024375,218.698125 840.930625,217.841875 L789.486875,217.841875 C789.676875,215.846875 790.270625,214.041875 791.268125,212.426875 C792.266875,210.810625 793.548125,209.410625 795.115625,208.223125 C796.683125,207.034375 798.440625,206.108125 800.389375,205.444375 C802.335625,204.779375 804.354375,204.446875 806.445625,204.446875 C810.150625,204.446875 813.284375,205.135625 815.849375,206.514375 C818.415625,207.889375 820.504375,209.670625 822.120625,211.856875 L838.365625,201.596875 C835.039375,196.751875 830.645625,193.023125 825.184375,190.410625 C819.720625,187.799375 813.379375,186.491875 806.159375,186.491875 C800.838125,186.491875 795.804375,187.324375 791.054375,188.985625 C786.303125,190.646875 782.148125,193.069375 778.586875,196.254375 C775.024375,199.434375 772.220625,203.353125 770.179375,208.009375 C768.134375,212.663125 767.115625,217.984375 767.115625,223.969375 C767.115625,229.763125 768.113125,235.013125 770.106875,239.715625 C772.101875,244.418125 774.809375,248.408125 778.229375,251.685625 C781.650625,254.963125 785.686875,257.504375 790.343125,259.309375 C794.996875,261.113125 800.033125,262.016875 805.448125,262.016875 C810.671875,262.016875 815.469375,261.138125 819.840625,259.381875 C824.209375,257.621875 827.963125,255.081875 831.096875,251.756875 C834.231875,248.430625 836.676875,244.393125 838.435625,239.644375 C840.193125,234.893125 841.073125,229.478125 841.073125,223.399375 L841.073125,223.399375 Z" id="path92" fill="#231F20" sketch:type="MSShapeGroup" transform="translate(804.094375, 224.254375) scale(1, -1) translate(-804.094375, -224.254375) "></path>
            <path d="M894.650875,186.776625 L894.650875,225.536625 C894.650875,227.531625 894.483375,229.430375 894.152125,231.236625 C893.818375,233.040375 893.272125,234.631625 892.513375,236.010375 C891.752125,237.386625 890.682125,238.479125 889.307125,239.287875 C887.928375,240.094125 886.193375,240.499125 884.104625,240.499125 C882.015875,240.499125 880.187125,240.094125 878.619625,239.287875 C877.052125,238.479125 875.744625,237.364125 874.700875,235.939125 C873.653375,234.514125 872.869625,232.875375 872.349625,231.022875 C871.825875,229.170375 871.565875,227.246625 871.565875,225.251625 L871.565875,186.776625 L848.053375,186.776625 L848.053375,257.741625 L870.710875,257.741625 L870.710875,247.909125 L870.995875,247.909125 C871.850875,249.427875 872.965875,250.922875 874.344625,252.397875 C875.719625,253.870375 877.335875,255.127875 879.189625,256.174125 C881.040875,257.219125 883.059625,258.072875 885.245875,258.739125 C887.430875,259.402875 889.757125,259.736625 892.228375,259.736625 C896.977125,259.736625 901.014625,258.881625 904.340875,257.171625 C907.664625,255.461625 910.348375,253.252875 912.390875,250.545375 C914.433375,247.837875 915.905875,244.724125 916.809625,241.211625 C917.710875,237.695375 918.163375,234.180375 918.163375,230.666625 L918.163375,186.776625 L894.650875,186.776625 L894.650875,186.776625 Z" id="path96" fill="#231F20" sketch:type="MSShapeGroup" transform="translate(883.108375, 223.256625) scale(1, -1) translate(-883.108375, -223.256625) "></path>
            <path d="M977.016625,232.376875 C977.016625,236.081875 975.851625,239.264375 973.525375,241.925625 C971.196625,244.583125 967.705375,245.914375 963.050375,245.914375 C960.771625,245.914375 958.680375,245.558125 956.781625,244.846875 C954.879125,244.133125 953.219125,243.158125 951.792875,241.925625 C950.369125,240.688125 949.229125,239.239375 948.374125,237.578125 C947.517875,235.915625 947.042875,234.180625 946.947875,232.376875 L977.016625,232.376875 L977.016625,232.376875 Z M998.534125,223.399375 L998.534125,220.549375 C998.534125,219.598125 998.485375,218.698125 998.391625,217.841875 L946.947875,217.841875 C947.137875,215.846875 947.731625,214.041875 948.729125,212.426875 C949.727875,210.810625 951.009125,209.410625 952.576625,208.223125 C954.144125,207.034375 955.901625,206.108125 957.850375,205.444375 C959.796625,204.779375 961.815375,204.446875 963.906625,204.446875 C967.611625,204.446875 970.745375,205.135625 973.310375,206.514375 C975.876625,207.889375 977.965375,209.670625 979.581625,211.856875 L995.826625,201.596875 C992.500375,196.751875 988.106625,193.023125 982.645375,190.410625 C977.181625,187.799375 970.840375,186.491875 963.620375,186.491875 C958.299125,186.491875 953.265375,187.324375 948.515375,188.985625 C943.764125,190.646875 939.609125,193.069375 936.047875,196.254375 C932.485375,199.434375 929.681625,203.353125 927.640375,208.009375 C925.595375,212.663125 924.576625,217.984375 924.576625,223.969375 C924.576625,229.763125 925.574125,235.013125 927.567875,239.715625 C929.562875,244.418125 932.270375,248.408125 935.690375,251.685625 C939.111625,254.963125 943.147875,257.504375 947.804125,259.309375 C952.457875,261.113125 957.494125,262.016875 962.909125,262.016875 C968.132875,262.016875 972.930375,261.138125 977.301625,259.381875 C981.670375,257.621875 985.424125,255.081875 988.557875,251.756875 C991.692875,248.430625 994.137875,244.393125 995.896625,239.644375 C997.654125,234.893125 998.534125,229.478125 998.534125,223.399375 L998.534125,223.399375 Z" id="path100" fill="#231F20" sketch:type="MSShapeGroup" transform="translate(961.555375, 224.254375) scale(1, -1) translate(-961.555375, -224.254375) "></path>
            <path d="M1053.53762,190.766625 L1053.53762,200.599125 L1053.25138,200.599125 C1052.39763,198.982875 1051.27887,197.464125 1049.90387,196.039125 C1048.52513,194.614125 1046.91013,193.379125 1045.05887,192.334125 C1043.20512,191.287875 1041.16262,190.434125 1038.93013,189.769125 C1036.69763,189.105375 1034.34513,188.771625 1031.87763,188.771625 C1027.12513,188.771625 1023.11262,189.626625 1019.83513,191.336625 C1016.55888,193.046625 1013.89763,195.255375 1011.85513,197.962875 C1009.81263,200.670375 1008.34013,203.756625 1007.43763,207.225375 C1006.53388,210.691625 1006.08388,214.230375 1006.08388,217.841625 L1006.08388,261.731625 L1029.59763,261.731625 L1029.59763,223.256625 C1029.59763,221.261625 1029.74013,219.360375 1030.02388,217.556625 C1030.31012,215.750375 1030.85513,214.136625 1031.66387,212.711625 C1032.47013,211.286625 1033.53762,210.167875 1034.86888,209.362875 C1036.19888,208.554125 1037.95512,208.151625 1040.14138,208.151625 C1044.22637,208.151625 1047.33763,209.670375 1049.47637,212.711625 C1051.61388,215.750375 1052.68138,219.314125 1052.68138,223.399125 L1052.68138,261.731625 L1076.05263,261.731625 L1076.05263,190.766625 L1053.53762,190.766625 L1053.53762,190.766625 Z" id="path104" fill="#231F20" sketch:type="MSShapeGroup" transform="translate(1041.068250, 225.251625) scale(1, -1) translate(-1041.068250, -225.251625) "></path>
            <path d="M1134.04913,238.50425 C1133.00288,238.7905 1131.98288,238.97925 1130.98537,239.07425 C1129.98788,239.168 1129.01288,239.21675 1128.06413,239.21675 C1124.92913,239.21675 1122.29288,238.64675 1120.15538,237.51175 C1118.01788,236.37425 1116.30788,234.99925 1115.02538,233.38925 C1113.74288,231.778 1112.81663,230.0255 1112.24662,228.1305 C1111.67663,226.23675 1111.39162,224.57925 1111.39162,223.15925 L1111.39162,186.77675 L1088.02163,186.77675 L1088.02163,257.65675 L1110.53538,257.65675 L1110.53538,247.39675 L1110.82163,247.39675 C1112.62413,251.0305 1115.19038,253.998 1118.51662,256.29175 C1121.84037,258.588 1125.68913,259.73675 1130.05912,259.73675 C1131.00662,259.73675 1131.93412,259.688 1132.83788,259.59425 C1133.73913,259.49925 1134.47663,259.35675 1135.04663,259.16675 L1134.04913,238.50425 L1134.04913,238.50425 Z" id="path108" fill="#231F20" sketch:type="MSShapeGroup" transform="translate(1111.534125, 223.256750) scale(1, -1) translate(-1111.534125, -223.256750) "></path>
            <path d="M1179.93412,238.7895 C1178.03287,240.59325 1175.80038,242.1145 1173.23663,243.3495 C1170.67162,244.58325 1167.96412,245.202 1165.11412,245.202 C1162.92787,245.202 1160.90912,244.7745 1159.05787,243.9195 C1157.20412,243.0645 1156.27913,241.59075 1156.27913,239.502 C1156.27913,237.50825 1157.29913,236.082 1159.34163,235.227 C1161.38413,234.37325 1164.68662,233.422 1169.24662,232.377 C1171.90413,231.807 1174.59037,230.9995 1177.29787,229.95575 C1180.00537,228.90825 1182.45037,227.532 1184.63662,225.822 C1186.82038,224.11325 1188.57787,222.022 1189.90787,219.552 C1191.23788,217.08075 1191.90413,214.137 1191.90413,210.717 C1191.90413,206.25075 1191.00037,202.4745 1189.19663,199.38825 C1187.39037,196.30075 1185.03913,193.807 1182.14288,191.907 C1179.24287,190.00575 1175.99037,188.6295 1172.38162,187.7745 C1168.76913,186.9195 1165.16162,186.492 1161.55162,186.492 C1155.75537,186.492 1150.08038,187.41825 1144.52287,189.272 C1138.96537,191.12325 1134.33412,193.85325 1130.62912,197.4645 L1143.73912,211.287 C1145.82787,209.00825 1148.39288,207.10575 1151.43412,205.587 C1154.47287,204.067 1157.70412,203.307 1161.12412,203.307 C1163.02287,203.307 1164.90037,203.75825 1166.75287,204.66075 C1168.60537,205.56325 1169.53162,207.1545 1169.53162,209.43575 C1169.53162,211.6195 1168.39162,213.23325 1166.11037,214.28075 C1163.83163,215.3245 1160.26913,216.41825 1155.42413,217.55825 C1152.95287,218.12825 1150.48287,218.887 1148.01412,219.837 C1145.54162,220.78575 1143.33412,222.06825 1141.38787,223.6845 C1139.43912,225.2995 1137.84787,227.2945 1136.61412,229.6695 C1135.37787,232.0445 1134.76037,234.89325 1134.76037,238.2195 C1134.76037,242.4945 1135.66287,246.12825 1137.46787,249.122 C1139.27287,252.11325 1141.60163,254.55825 1144.45037,256.46075 C1147.30162,258.35825 1150.45912,259.7595 1153.92662,260.66325 C1157.39413,261.56575 1160.83912,262.017 1164.25913,262.017 C1169.57787,262.017 1174.77913,261.1845 1179.86163,259.52325 C1184.94412,257.86075 1189.24287,255.367 1192.75912,252.04325 L1179.93412,238.7895 L1179.93412,238.7895 Z" id="path112" fill="#231F20" sketch:type="MSShapeGroup" transform="translate(1161.694125, 224.254500) scale(1, -1) translate(-1161.694125, -224.254500) "></path>
        </g>
    </g>
</svg>